# xmcd
#
# Track frame offsets: 
#        150
#        19739
#        37498
#        56782
#        72980
#        88298
#        125747
#        140210
#        151769
#        166001
#        186681
#        201885
#        219184
#        233303
#        247299
#        265766
#        281718
#        319423
#
# Disc length: 4577 seconds
#
# Revision: 0
# Processed by: cddbd v1.5.2PL0 Copyright (c) Steve Scherf et al.
# Submitted via: ExactAudioCopy v1.0b3
#
DISCID=1e11df12
DTITLE=Various Artist - Mystic Trance Vol. 2 - CD 1
DYEAR=1900
DGENRE=
TTITLE0=ATB - Summer Rain (136 BPM Radio Mix)
TTITLE1=Freek Geuze Pres. Oradea - Salt Lake (Radio Mix)
TTITLE2=Ayu - Unite (Airwave Vocal Edit)
TTITLE3=Yves Deruyter - Infinity (Radio Edit)
TTITLE4=Cascada - A Neverending Dream (Radio Mix)
TTITLE5=Denga and Manus - Shadowsong (Volition Spellforce Mix)
TTITLE6=CJ Stone Feat. Tamara Rhodes - City Lights (Radio Mix)
TTITLE7=Claus Van Haiden - 666 Part 2 (Radio Version)
TTITLE8=Ernesto Vs. Bastian - Dark Side Of The Moon (Radio Mix)
TTITLE9=Gigi D'Agostino - Semplicemente (Non Giochiamo)
TTITLE10=4 Strings - Desire (Radio Cut)
TTITLE11=Harmony Industry - Rachel's Song (Main Mix Edit)
TTITLE12=Camelot - Rise And Fall (Italo Epic Radio Edit)
TTITLE13=MR - To France 2005 (Beam and Sean Tyas Radio Mix)
TTITLE14=Joni Pres. External Art - We Forget (Radio Edit)
TTITLE15=Ozone - Theme From The Rock
TTITLE16=Belmondo - Sunshine Dust (Jussi Polet Rmx)
TTITLE17=Icehouse - Man Of Colours (Remixed By Endorphin)
EXTD=
EXTT0=
EXTT1=
EXTT2=
EXTT3=
EXTT4=
EXTT5=
EXTT6=
EXTT7=
EXTT8=
EXTT9=
EXTT10=
EXTT11=
EXTT12=
EXTT13=
EXTT14=
EXTT15=
EXTT16=
EXTT17=
PLAYORDER=
